<svg width="23" height="21" viewBox="0 0 23 21" fill="none" xmlns="http://www.w3.org/2000/svg">
<path fill-rule="evenodd" clip-rule="evenodd" d="M11.5 2.52935C12.7262 1.08935 14.605 0.178101 16.5625 0.178101C20.0275 0.178101 22.75 2.9006 22.75 6.3656C22.75 10.6146 18.9313 14.0774 13.1455 19.3239L13.1312 19.3368L11.5 20.8218L9.86875 19.3481L9.82435 19.3077C4.05546 14.0654 0.25 10.6072 0.25 6.3656C0.25 2.9006 2.9725 0.178101 6.4375 0.178101C8.395 0.178101 10.2738 1.08935 11.5 2.52935ZM11.5 17.7843L11.6125 17.6719C16.9675 12.8231 20.5 9.61685 20.5 6.3656C20.5 4.1156 18.8125 2.4281 16.5625 2.4281C14.83 2.4281 13.1425 3.54185 12.5575 5.0831H10.4538C9.8575 3.54185 8.17 2.4281 6.4375 2.4281C4.1875 2.4281 2.5 4.1156 2.5 6.3656C2.5 9.61685 6.0325 12.8231 11.3875 17.6719L11.5 17.7843Z" fill="#E2E0E8"/>
</svg>
