<svg width="12" height="18" viewBox="0 0 12 18" fill="none" xmlns="http://www.w3.org/2000/svg">
<path d="M6.06445 11.7231C7.71631 11.7231 8.82861 10.4863 8.82861 8.71826V3.16504C8.82861 1.38867 7.71631 0.160156 6.06445 0.160156C4.4043 0.160156 3.29199 1.38867 3.29199 3.16504V8.71826C3.29199 10.4863 4.4043 11.7231 6.06445 11.7231ZM0.121094 8.85107C0.121094 12.105 2.271 14.3877 5.43359 14.6533V16.5874H2.354C2.00537 16.5874 1.72314 16.8696 1.72314 17.2183C1.72314 17.5669 2.00537 17.8408 2.354 17.8408H9.7666C10.1152 17.8408 10.3975 17.5669 10.3975 17.2183C10.3975 16.8696 10.1152 16.5874 9.7666 16.5874H6.68701V14.6533C9.85791 14.3877 11.9995 12.105 11.9995 8.85107V7.16602C11.9995 6.81738 11.7256 6.54346 11.377 6.54346C11.0283 6.54346 10.7461 6.81738 10.7461 7.16602V8.80127C10.7461 11.6318 8.90332 13.5078 6.06445 13.5078C3.21729 13.5078 1.37451 11.6318 1.37451 8.80127V7.16602C1.37451 6.81738 1.10059 6.54346 0.743652 6.54346C0.39502 6.54346 0.121094 6.81738 0.121094 7.16602V8.85107Z" fill="white" fill-opacity="0.6"/>
</svg>
