<svg width="38" height="38" viewBox="0 0 38 38" fill="none" xmlns="http://www.w3.org/2000/svg">
<path d="M2.02478 15.6525C1.61547 15.6525 1.22291 15.4899 0.933479 15.2004C0.644047 14.911 0.481445 14.5184 0.481445 14.1091V1.76551C0.481445 1.35619 0.644047 0.963634 0.933479 0.674202C1.22291 0.38477 1.61547 0.222168 2.02478 0.222168H14.3715C14.7808 0.222168 15.1734 0.38477 15.4628 0.674202C15.7522 0.963634 15.9148 1.35619 15.9148 1.76551V14.1091C15.9148 14.5184 15.7522 14.911 15.4628 15.2004C15.1734 15.4899 14.7808 15.6525 14.3715 15.6525H2.02478ZM23.6315 15.6525C23.2222 15.6525 22.8297 15.4899 22.5402 15.2004C22.2508 14.911 22.0882 14.5184 22.0882 14.1091V1.76551C22.0882 1.35619 22.2508 0.963634 22.5402 0.674202C22.8297 0.38477 23.2222 0.222168 23.6315 0.222168H35.9751C36.3845 0.222168 36.777 0.38477 37.0665 0.674202C37.3559 0.963634 37.5185 1.35619 37.5185 1.76551V14.1091C37.5185 14.5184 37.3559 14.911 37.0665 15.2004C36.777 15.4899 36.3845 15.6525 35.9751 15.6525H23.6315ZM2.02478 37.2592C1.61547 37.2592 1.22291 37.0966 0.933479 36.8072C0.644047 36.5177 0.481445 36.1252 0.481445 35.7159V23.3692C0.481445 22.9598 0.644047 22.5673 0.933479 22.2779C1.22291 21.9884 1.61547 21.8258 2.02478 21.8258H14.3715C14.7808 21.8258 15.1734 21.9884 15.4628 22.2779C15.7522 22.5673 15.9148 22.9598 15.9148 23.3692V35.7159C15.9148 36.1252 15.7522 36.5177 15.4628 36.8072C15.1734 37.0966 14.7808 37.2592 14.3715 37.2592H2.02478ZM23.6315 37.2592C23.2222 37.2592 22.8297 37.0966 22.5402 36.8072C22.2508 36.5177 22.0882 36.1252 22.0882 35.7159V23.3692C22.0882 22.9598 22.2508 22.5673 22.5402 22.2779C22.8297 21.9884 23.2222 21.8258 23.6315 21.8258H35.9751C36.3845 21.8258 36.777 21.9884 37.0665 22.2779C37.3559 22.5673 37.5185 22.9598 37.5185 23.3692V35.7159C37.5185 36.1252 37.3559 36.5177 37.0665 36.8072C36.777 37.0966 36.3845 37.2592 35.9751 37.2592H23.6315Z" fill="white"/>
</svg>
