<svg width="18" height="25" viewBox="0 0 18 25" fill="none" xmlns="http://www.w3.org/2000/svg">
<path d="M0 23C0 24.1046 0.895431 25 2 25H16C17.1046 25 18 24.1046 18 23V20.5357C17.9981 18.8787 17.3337 17.2901 16.1527 16.1184C14.9716 14.9467 13.3703 14.2876 11.7 14.2857H6.3C4.62972 14.2876 3.0284 14.9467 1.84733 16.1184C0.666266 17.2901 0.00190563 18.8787 0 20.5357V23ZM2.7 6.25C2.7 7.48613 3.06949 8.69451 3.76174 9.72231C4.45399 10.7501 5.43792 11.5512 6.58909 12.0242C7.74027 12.4973 9.00699 12.6211 10.2291 12.3799C11.4511 12.1388 12.5737 11.5435 13.4548 10.6694C14.3358 9.79534 14.9359 8.68169 15.1789 7.46931C15.422 6.25693 15.2973 5.00027 14.8204 3.85823C14.3436 2.71619 13.5361 1.74007 12.5001 1.05331C11.4641 0.366556 10.246 0 9 0C7.32914 0 5.72671 0.65848 4.54523 1.83058C3.36375 3.00268 2.7 4.5924 2.7 6.25Z" fill="white"/>
</svg>
