<svg width="27" height="21" viewBox="0 0 27 21" fill="none" xmlns="http://www.w3.org/2000/svg">
<path fill-rule="evenodd" clip-rule="evenodd" d="M18 0V1.905C18 2.20337 18.1185 2.48952 18.3295 2.7005C18.5405 2.91147 18.8266 3.03 19.125 3.03C19.4234 3.03 19.7095 2.91147 19.9205 2.7005C20.1315 2.48952 20.25 2.20337 20.25 1.905V0H23.625C24.0682 0 24.5071 0.087297 24.9166 0.256907C25.326 0.426516 25.6981 0.675117 26.0115 0.988515C26.3249 1.30191 26.5735 1.67397 26.7431 2.08344C26.9127 2.49292 27 2.93179 27 3.375V7.317C27 7.54962 26.9278 7.7765 26.7935 7.96642C26.6592 8.15635 26.4693 8.29996 26.25 8.3775C25.8105 8.53211 25.4298 8.81933 25.1606 9.19951C24.8913 9.5797 24.7467 10.0341 24.7467 10.5C24.7467 10.9659 24.8913 11.4203 25.1606 11.8005C25.4298 12.1807 25.8105 12.4679 26.25 12.6225C26.7 12.7815 27 13.2075 27 13.683V17.625C27 18.0682 26.9127 18.5071 26.7431 18.9166C26.5735 19.326 26.3249 19.6981 26.0115 20.0115C25.6981 20.3249 25.326 20.5735 24.9166 20.7431C24.5071 20.9127 24.0682 21 23.625 21H20.25V19.095C20.25 18.7966 20.1315 18.5105 19.9205 18.2995C19.7095 18.0885 19.4234 17.97 19.125 17.97C18.8266 17.97 18.5405 18.0885 18.3295 18.2995C18.1185 18.5105 18 18.7966 18 19.095V21H3.375C2.47989 21 1.62145 20.6444 0.988515 20.0115C0.355579 19.3785 0 18.5201 0 17.625V13.683C0 13.206 0.3 12.7815 0.75 12.6225C1.18949 12.4679 1.57015 12.1807 1.83944 11.8005C2.10872 11.4203 2.25335 10.9659 2.25335 10.5C2.25335 10.0341 2.10872 9.5797 1.83944 9.19951C1.57015 8.81933 1.18949 8.53211 0.75 8.3775C0.530687 8.29996 0.340802 8.15635 0.206488 7.96642C0.0721728 7.7765 3.31196e-05 7.54962 0 7.317V3.375C0 2.47989 0.355579 1.62145 0.988515 0.988515C1.62145 0.355579 2.47989 0 3.375 0H18ZM20.25 6.594C20.25 6.29563 20.1315 6.00948 19.9205 5.7985C19.7095 5.58753 19.4234 5.469 19.125 5.469C18.8266 5.469 18.5405 5.58753 18.3295 5.7985C18.1185 6.00948 18 6.29563 18 6.594V8.157C18 8.45537 18.1185 8.74152 18.3295 8.9525C18.5405 9.16347 18.8266 9.282 19.125 9.282C19.4234 9.282 19.7095 9.16347 19.9205 8.9525C20.1315 8.74152 20.25 8.45537 20.25 8.157V6.594ZM20.25 12.8445C20.25 12.5461 20.1315 12.26 19.9205 12.049C19.7095 11.838 19.4234 11.7195 19.125 11.7195C18.8266 11.7195 18.5405 11.838 18.3295 12.049C18.1185 12.26 18 12.5461 18 12.8445V14.406C18 14.7044 18.1185 14.9905 18.3295 15.2015C18.5405 15.4125 18.8266 15.531 19.125 15.531C19.4234 15.531 19.7095 15.4125 19.9205 15.2015C20.1315 14.9905 20.25 14.7044 20.25 14.406V12.8445ZM7.5 11.625C7.5 11.3266 7.61853 11.0405 7.8295 10.8295C8.04048 10.6185 8.32663 10.5 8.625 10.5H13.875C14.1734 10.5 14.4595 10.6185 14.6705 10.8295C14.8815 11.0405 15 11.3266 15 11.625C15 11.9234 14.8815 12.2095 14.6705 12.4205C14.4595 12.6315 14.1734 12.75 13.875 12.75H8.625C8.32663 12.75 8.04048 12.6315 7.8295 12.4205C7.61853 12.2095 7.5 11.9234 7.5 11.625ZM7.5 15.375C7.5 15.0766 7.61853 14.7905 7.8295 14.5795C8.04048 14.3685 8.32663 14.25 8.625 14.25H10.875C11.1734 14.25 11.4595 14.3685 11.6705 14.5795C11.8815 14.7905 12 15.0766 12 15.375C12 15.6734 11.8815 15.9595 11.6705 16.1705C11.4595 16.3815 11.1734 16.5 10.875 16.5H8.625C8.32663 16.5 8.04048 16.3815 7.8295 16.1705C7.61853 15.9595 7.5 15.6734 7.5 15.375Z" fill="white"/>
</svg>
