<svg width="19" height="25" viewBox="0 0 19 25" fill="none" xmlns="http://www.w3.org/2000/svg">
<path d="M9.5 11.875C8.60016 11.875 7.73717 11.5458 7.10089 10.9597C6.4646 10.3737 6.10714 9.5788 6.10714 8.75C6.10714 7.9212 6.4646 7.12634 7.10089 6.54029C7.73717 5.95424 8.60016 5.625 9.5 5.625C10.3998 5.625 11.2628 5.95424 11.8991 6.54029C12.5354 7.12634 12.8929 7.9212 12.8929 8.75C12.8929 9.16038 12.8051 9.56674 12.6346 9.94589C12.4641 10.325 12.2142 10.6695 11.8991 10.9597C11.5841 11.2499 11.21 11.4801 10.7984 11.6371C10.3868 11.7942 9.94556 11.875 9.5 11.875ZM9.5 0C6.98044 0 4.56408 0.921872 2.78249 2.56282C1.00089 4.20376 0 6.42936 0 8.75C0 15.3125 9.5 25 9.5 25C9.5 25 19 15.3125 19 8.75C19 6.42936 17.9991 4.20376 16.2175 2.56282C14.4359 0.921872 12.0196 0 9.5 0Z" fill="white"/>
</svg>
